Coordinates
version=1
nRows=6
nColumns=36
inDegrees=yes

Units are S.I. units (second, meters, Newtons, ...)
If the header above contains a line with 'inDegrees', this indicates whether rotational values are in degrees (yes) or radians (no).

endheader
time	pelvis_tilt	pelvis_list	pelvis_rotation	pelvis_tx	pelvis_ty	pelvis_tz	hip_flexion_r	hip_adduction_r	hip_rotation_r	knee_angle_r	knee_angle_r_beta	ankle_angle_r	subtalar_angle_r	mtp_angle_r	hip_flexion_l	hip_adduction_l	hip_rotation_l	knee_angle_l	knee_angle_l_beta	ankle_angle_l	subtalar_angle_l	mtp_angle_l	lumbar_extension	lumbar_bending	lumbar_rotation	arm_flex_r	arm_add_r	arm_rot_r	elbow_flex_r	pro_sup_r	arm_flex_l	arm_add_l	arm_rot_l	elbow_flex_l	pro_sup_l
      0.00000000	     31.68875029	     -1.96100860	     -0.46322723	     -0.61502288	      0.60446430	     -0.63123728	     60.02500675	     -0.88369213	      2.19520297	    108.58957498	      1.89524562	     23.20891846	     -4.17946926	     -4.94334233	     60.87061666	     -2.65966489	      0.91928478	    109.23704716	      1.90654614	     24.20720440	     -6.14903119	     -4.94334233	    -38.02170824	      2.75906158	     -1.96594861	      0.40674924	     -7.84298433	     -1.79142023	     72.19439767	    108.51772509	     -6.87393268	     -9.24547538	      0.68089001	     80.64862103	     79.09949939
      0.01000000	     31.69274394	     -1.97127934	     -0.43016671	     -0.61507877	      0.60451926	     -0.63127915	     60.02823580	     -0.90156751	      2.15858219	    108.67203659	      1.89668484	     23.59039939	     -4.42529997	     -5.05307727	     60.87391491	     -2.62357673	      0.92887602	    109.25130256	      1.90679494	     24.37907612	     -6.28259023	     -5.05307727	    -38.06622567	      2.83983535	     -1.94161379	      0.35750814	     -7.85022561	     -1.74823470	     72.38119858	    107.46887485	     -6.87997168	     -9.22682058	      0.70753713	     80.70129511	     78.75030732
      0.02000000	     31.73828393	     -1.95651850	     -0.42133507	     -0.61516685	      0.60466682	     -0.63124462	     59.96954152	     -0.91360476	      2.13687428	    108.75058067	      1.89805570	     24.15635652	     -4.41622959	     -5.14693380	     60.80224732	     -2.60548718	      0.92592035	    109.26789524	      1.90708454	     24.58513689	     -6.17363214	     -5.14693380	    -38.18364372	      2.85917617	     -1.96024542	      0.31364837	     -7.82061963	     -1.80249616	     72.53333954	    107.43994437	     -6.90598824	     -9.22599921	      0.72119741	     80.87141100	     78.43456352
      0.03000000	     31.76014648	     -1.86285837	     -0.44089117	     -0.61528959	      0.60479518	     -0.63118797	     59.95246213	     -0.94004524	      2.26434026	    108.83122140	      1.89946314	     24.70180764	     -3.99149409	     -5.23376971	     60.73635857	     -2.54795184	      0.84948085	    109.23940659	      1.90658732	     24.87002390	     -5.93267351	     -5.23376971	    -38.26658932	      2.79630742	     -2.00292590	      0.35567958	     -7.75344282	     -1.89314070	     72.58705037	    108.04079049	     -6.91744191	     -9.22280410	      0.66145838	     80.94731020	     78.40689161
      0.04000000	     31.73441782	     -1.83006781	     -0.45000422	     -0.61537490	      0.60484669	     -0.63115327	     59.99039987	     -0.94786993	      2.27160773	    108.85677645	      1.89990916	     24.87338130	     -4.13803050	     -5.28240999	     60.74629808	     -2.52525229	      0.81760520	    109.22937329	      1.90641220	     24.96881283	     -6.05237563	     -5.28240999	    -38.32237807	      2.80501834	     -2.01492839	      0.37275531	     -7.74402868	     -1.85112326	     72.69236871	    107.62140060	     -6.91528368	     -9.23509961	      0.68575246	     80.98475131	     78.27459394
      0.05000000	     31.77780569	     -1.77272730	     -0.45009072	     -0.61547729	      0.60497596	     -0.63119314	     59.94454155	     -0.99696633	      2.31826045	    108.90229417	      1.90070360	     25.23251592	     -3.90148828	     -5.49129811	     60.67602631	     -2.49212888	      0.75410748	    109.21722320	      1.90620014	     25.10452046	     -5.99289248	     -5.49129811	    -38.47726283	      2.78043684	     -2.17078815	      0.45686347	     -7.75185452	     -1.78482086	     72.71597759	    108.79485368	     -7.05683178	     -9.25729769	      0.56113646	     81.25362328	     78.43618760
